<svg width="26" height="24" viewBox="0 0 26 24" fill="none" xmlns="http://www.w3.org/2000/svg">
<path d="M0.75 4.9999C0.750002 4.44762 1.19772 3.99991 1.75 3.99991L20.25 3.99997C20.8023 3.99998 21.25 4.44769 21.25 4.99998C21.25 5.55226 20.8023 5.99998 20.25 5.99997L1.75 5.99991C1.19771 5.99991 0.749998 5.55219 0.75 4.9999Z" fill="#192435"/>
<path d="M0.75 12C0.750002 11.4477 1.19772 11 1.75 11L24.25 11.0001C24.8023 11.0001 25.25 11.4478 25.25 12.0001C25.25 12.5523 24.8023 13.0001 24.25 13.0001L1.75 13C1.19771 13 0.749998 12.5523 0.75 12Z" fill="#192435"/>
<path d="M1.75 18C1.19772 18 0.750002 18.4477 0.75 19C0.749998 19.5523 1.19771 20 1.75 20L12.25 20.0001C12.8023 20.0001 13.25 19.5524 13.25 19.0001C13.25 18.4478 12.8023 18.0001 12.25 18.0001L1.75 18Z" fill="#192435"/>
</svg>
