<svg width="24" height="24" viewBox="0 0 24 24" fill="none" xmlns="http://www.w3.org/2000/svg">
<path d="M3.44461 15.9948C3.33408 16.1053 3.26084 16.2476 3.23514 16.4018L2.52804 20.6445C2.48822 20.8834 2.56623 21.1268 2.7375 21.2981C2.90877 21.4694 3.15221 21.5474 3.39113 21.5076L7.63377 20.8005C7.78796 20.7748 7.93027 20.7015 8.0408 20.591L20.7687 7.86307C21.8427 6.78913 21.8427 5.04792 20.7687 3.97398L20.0616 3.26687C18.9877 2.19293 17.2465 2.19293 16.1725 3.26687L3.44461 15.9948ZM4.18025 19.8554L4.67522 16.8855L14.9351 6.62561L17.41 9.10049L7.15009 19.3604L4.18025 19.8554ZM18.4706 8.03983L15.9958 5.56495L17.2332 4.32753C17.7213 3.83938 18.5128 3.83938 19.001 4.32753L19.7081 5.03464C20.1962 5.5228 20.1962 6.31425 19.7081 6.80241L18.4706 8.03983Z" fill="#192435"/>
</svg>
