<?xml version="1.0" encoding="UTF-8" standalone="no"?>
<!DOCTYPE svg PUBLIC "-//W3C//DTD SVG 1.1//EN">
<svg width="100%" height="100%" viewBox="0 0 182 173" version="1.1"
     xmlns="http://www.w3.org/2000/svg"
     xml:space="preserve"
     style="fill-rule:evenodd;clip-rule:evenodd;stroke-linejoin:round;stroke-miterlimit:2;">
    <g id="Artboard1" transform="matrix(0.226691,0,0,0.287675,0,0)">
        <rect x="0" y="0" width="800" height="600" style="fill:none;"/>
        <g transform="matrix(4.41128,0,0,3.47614,-1365.52,-745.199)">
            <path d="M375.001,386.981L325.002,350.654L350.001,316.246L309.551,303.103L328.649,244.325L369.099,257.468L369.099,214.937L430.901,214.937L430.901,257.468L471.351,244.325L490.449,303.103L449.999,316.246L474.998,350.654L424.999,386.981L400,352.572L375.001,386.981ZM400,273.845C414.435,273.845 426.155,285.565 426.155,300C426.155,314.435 414.435,326.155 400,326.155C385.565,326.155 373.845,314.435 373.845,300C373.845,285.565 385.565,273.845 400,273.845Z" style="fill:rgb(0,190,255);"/>
        </g>
    </g>
</svg>
