<svg width="24" height="24" viewBox="0 0 24 24" fill="none" xmlns="http://www.w3.org/2000/svg">
<path d="M14 3.4964C14.2761 3.4964 14.5 3.71972 14.5 3.9952V4.9928H9.5V3.9952C9.5 3.71972 9.72386 3.4964 10 3.4964H14ZM8 3.9952V4.9928H3.75C3.33579 4.9928 3 5.32778 3 5.741C3 6.15422 3.33579 6.4892 3.75 6.4892H5V20.0048C5 21.1067 5.89543 22 7 22H17C18.1046 22 19 21.1067 19 20.0048V6.4892H20.25C20.6642 6.4892 21 6.15422 21 5.741C21 5.32778 20.6642 4.9928 20.25 4.9928H16V3.9952C16 2.89328 15.1046 2 14 2H10C8.89543 2 8 2.89328 8 3.9952ZM17.5 6.4892V20.0048C17.5 20.2803 17.2761 20.5036 17 20.5036H7C6.72386 20.5036 6.5 20.2803 6.5 20.0048V6.4892H17.5ZM13.5 8.73381L13.5 18.211C13.5 18.6242 13.8358 18.9592 14.25 18.9592C14.6642 18.9592 15 18.6242 15 18.211L15 8.73381C15 8.32059 14.6642 7.98561 14.25 7.98561C13.8358 7.98561 13.5 8.32059 13.5 8.73381ZM9 18.211V8.73381C9 8.32059 9.33579 7.98561 9.75 7.98561C10.1642 7.98561 10.5 8.32059 10.5 8.73381V18.211C10.5 18.6242 10.1642 18.9592 9.75 18.9592C9.33579 18.9592 9 18.6242 9 18.211Z" fill="#192435"/>
</svg>
